<svg xmlns="http://www.w3.org/2000/svg" width="45" height="45" viewBox="0 0 45 45"><defs><style>.a{fill:#edeef1;}.b{fill:#3f2a56;fill-rule:evenodd;}</style></defs><g transform="translate(-282 -867)"><circle class="a" cx="22.5" cy="22.5" r="22.5" transform="translate(282 867)"/><g transform="translate(271.225 864.898)"><path class="b" d="M31.194,9.038A1.7,1.7,0,0,1,32.9,10.744V23.37c0,.038.038.114.038.152.038.038.076.038.152.038.038,0,.114-.038.152-.038.038-.038.038-.076.038-.152V16.7a1.706,1.706,0,1,1,3.412,0v7.242c0,.038.038.114.038.152.038.038.076.038.152.038.038,0,.114-.038.152-.038.038-.038.038-.076.038-.152V18.1a1.724,1.724,0,0,1,1.706-1.706A1.7,1.7,0,0,1,40.484,18.1v6.256c0,.038.038.114.038.152.038.038.076.038.152.038.038,0,.114-.038.152-.038.038-.038.038-.076.038-.152V19.73a1.706,1.706,0,1,1,3.412,0V30.574h0c0,.569,0,4.588-2.009,7.09a7.883,7.883,0,0,1-6.1,2.5c-4.019,0-5.308-.72-6.559-1.934s-2.2-3.867-3.564-7.052c-.948-2.2-1.517-3-3.526-6.749h0a2.81,2.81,0,0,1-.227-1.327c.3-1.4,1.934-1.024,3.147-.076a21.8,21.8,0,0,1,3.791,4.664.187.187,0,0,0,.341-.114v-16.8a1.6,1.6,0,0,1,1.63-1.744Z" transform="translate(0)"/></g></g></svg>