<svg xmlns:dc="http://purl.org/dc/elements/1.1/" xmlns:cc="http://creativecommons.org/ns#" xmlns:rdf="http://www.w3.org/1999/02/22-rdf-syntax-ns#" xmlns:svg="http://www.w3.org/2000/svg" xmlns="http://www.w3.org/2000/svg" xmlns:sodipodi="http://sodipodi.sourceforge.net/DTD/sodipodi-0.dtd" xmlns:inkscape="http://www.inkscape.org/namespaces/inkscape" inkscape:version="1.0 (4035a4fb49, 2020-05-01)" height="29.24" width="300.91" sodipodi:docname="CSPS_FipEng_Black-Red-Final.svg" xml:space="preserve" viewBox="0 0 300.91 29.24" y="0px" x="0px" id="Layer_1" version="1.1">
  <metadata id="metadata141">
    <rdf:RDF>
      <cc:Work rdf:about="">
        <dc:format>image/svg+xml</dc:format>
        <dc:type rdf:resource="http://purl.org/dc/dcmitype/StillImage" />
        <dc:title></dc:title>
      </cc:Work>
    </rdf:RDF>
  </metadata>
  <defs id="defs139" />
  <sodipodi:namedview inkscape:current-layer="Layer_1" inkscape:window-maximized="1" inkscape:window-y="-8" inkscape:window-x="1912" inkscape:cy="14.67" inkscape:cx="149.48" inkscape:zoom="2.4282407" fit-margin-bottom="0" fit-margin-right="0" fit-margin-left="0" fit-margin-top="0" showgrid="false" id="namedview137" inkscape:window-height="1017" inkscape:window-width="1920" inkscape:pageshadow="2" inkscape:pageopacity="0" guidetolerance="10" gridtolerance="10" objecttolerance="10" borderopacity="1" bordercolor="#666666" pagecolor="#ffffff" />
<style id="style2" type="text/css">
	.st0{fill:#E71E25;}
</style>
<g transform="translate(-66.519997,-21.33)" id="g134">
	<g id="g58">
		<path id="path4" d="m 142.78,24.63 c 0.64,0.62 1,1.33 1.07,2.12 h -1.23 c -0.14,-0.6 -0.41,-1.08 -0.82,-1.43 -0.41,-0.35 -0.98,-0.53 -1.72,-0.53 -0.9,0 -1.63,0.32 -2.19,0.97 -0.55,0.65 -0.83,1.63 -0.83,2.97 0,1.09 0.25,1.98 0.75,2.66 0.5,0.68 1.25,1.02 2.24,1.02 0.91,0 1.61,-0.36 2.09,-1.07 0.25,-0.38 0.44,-0.87 0.57,-1.48 h 1.23 c -0.11,0.98 -0.47,1.81 -1.08,2.47 -0.73,0.8 -1.72,1.2 -2.96,1.2 -1.07,0 -1.97,-0.33 -2.69,-0.98 -0.96,-0.87 -1.43,-2.21 -1.43,-4.02 0,-1.38 0.36,-2.51 1.08,-3.39 0.78,-0.96 1.85,-1.44 3.21,-1.44 1.16,-0.01 2.07,0.3 2.71,0.93 z" />
		<path id="path6" d="m 149.06,29.15 c 0.26,-0.03 0.44,-0.14 0.53,-0.33 0.05,-0.1 0.08,-0.25 0.08,-0.43 0,-0.39 -0.14,-0.67 -0.42,-0.84 -0.28,-0.17 -0.67,-0.26 -1.19,-0.26 -0.59,0 -1.02,0.16 -1.27,0.48 -0.14,0.18 -0.23,0.44 -0.27,0.79 h -1.06 c 0.02,-0.84 0.29,-1.43 0.81,-1.76 0.52,-0.33 1.13,-0.49 1.81,-0.49 0.8,0 1.45,0.16 1.94,0.47 0.49,0.31 0.74,0.79 0.74,1.43 v 3.9 c 0,0.12 0.02,0.21 0.07,0.29 0.05,0.07 0.15,0.11 0.31,0.11 0.05,0 0.11,0 0.17,-0.01 0.06,-0.01 0.13,-0.02 0.2,-0.03 v 0.85 c -0.18,0.05 -0.31,0.08 -0.41,0.09 -0.09,0.01 -0.22,0.02 -0.38,0.02 -0.39,0 -0.68,-0.14 -0.85,-0.42 -0.09,-0.15 -0.16,-0.36 -0.2,-0.63 -0.23,0.31 -0.57,0.58 -1,0.8 -0.44,0.23 -0.92,0.34 -1.44,0.34 -0.63,0 -1.15,-0.19 -1.54,-0.58 -0.4,-0.38 -0.6,-0.86 -0.6,-1.44 0,-0.63 0.2,-1.12 0.59,-1.47 0.39,-0.35 0.91,-0.56 1.55,-0.64 z m -2.41,3.09 c 0.24,0.19 0.53,0.28 0.86,0.28 0.4,0 0.79,-0.09 1.17,-0.28 0.64,-0.31 0.95,-0.81 0.95,-1.51 v -0.92 c -0.14,0.09 -0.32,0.17 -0.54,0.23 -0.22,0.06 -0.44,0.11 -0.65,0.13 l -0.69,0.08 c -0.41,0.05 -0.73,0.14 -0.94,0.25 -0.36,0.2 -0.53,0.51 -0.53,0.95 0.01,0.34 0.13,0.6 0.37,0.79 z" />
		<path id="path8" d="m 152.66,26.47 h 1.08 v 0.96 c 0.32,-0.4 0.66,-0.68 1.03,-0.86 0.36,-0.17 0.76,-0.26 1.2,-0.26 0.97,0 1.62,0.34 1.96,1.01 0.19,0.37 0.28,0.9 0.28,1.58 v 4.36 h -1.14 v -4.28 c 0,-0.42 -0.06,-0.75 -0.19,-1 -0.21,-0.42 -0.58,-0.63 -1.11,-0.63 -0.27,0 -0.5,0.03 -0.67,0.08 -0.32,0.09 -0.59,0.28 -0.83,0.56 -0.19,0.22 -0.32,0.46 -0.37,0.7 -0.06,0.24 -0.09,0.58 -0.09,1.03 v 3.56 h -1.14 v -6.81 z" />
		<path id="path10" d="m 163.52,29.15 c 0.26,-0.03 0.44,-0.14 0.53,-0.33 0.05,-0.1 0.08,-0.25 0.08,-0.43 0,-0.39 -0.14,-0.67 -0.42,-0.84 -0.28,-0.17 -0.67,-0.26 -1.19,-0.26 -0.6,0 -1.02,0.16 -1.27,0.48 -0.14,0.18 -0.23,0.44 -0.27,0.79 h -1.06 c 0.02,-0.84 0.29,-1.43 0.81,-1.76 0.52,-0.33 1.13,-0.49 1.81,-0.49 0.8,0 1.45,0.16 1.94,0.47 0.49,0.31 0.74,0.79 0.74,1.43 v 3.9 c 0,0.12 0.02,0.21 0.07,0.29 0.05,0.07 0.15,0.11 0.31,0.11 0.05,0 0.11,0 0.17,-0.01 0.06,-0.01 0.13,-0.02 0.2,-0.03 v 0.85 c -0.18,0.05 -0.31,0.08 -0.4,0.09 -0.09,0.01 -0.22,0.02 -0.38,0.02 -0.39,0 -0.68,-0.14 -0.85,-0.42 -0.09,-0.15 -0.16,-0.36 -0.2,-0.63 -0.23,0.31 -0.57,0.58 -1,0.8 -0.44,0.23 -0.92,0.34 -1.44,0.34 -0.63,0 -1.15,-0.19 -1.55,-0.58 -0.4,-0.38 -0.6,-0.86 -0.6,-1.44 0,-0.63 0.2,-1.12 0.59,-1.47 0.39,-0.35 0.91,-0.56 1.55,-0.64 z m -2.41,3.09 c 0.24,0.19 0.53,0.28 0.86,0.28 0.4,0 0.79,-0.09 1.17,-0.28 0.64,-0.31 0.95,-0.81 0.95,-1.51 v -0.92 c -0.14,0.09 -0.32,0.17 -0.54,0.23 -0.22,0.06 -0.44,0.11 -0.65,0.13 l -0.69,0.08 c -0.41,0.05 -0.73,0.14 -0.94,0.25 -0.36,0.2 -0.53,0.51 -0.53,0.95 0.01,0.34 0.13,0.6 0.37,0.79 z" />
		<path id="path12" d="m 170.85,26.68 c 0.2,0.13 0.43,0.34 0.69,0.66 v -3.41 h 1.09 v 9.34 h -1.03 v -0.94 c -0.26,0.42 -0.58,0.71 -0.94,0.9 -0.36,0.18 -0.77,0.28 -1.24,0.28 -0.75,0 -1.4,-0.32 -1.95,-0.96 -0.55,-0.64 -0.83,-1.48 -0.83,-2.54 0,-0.99 0.25,-1.85 0.75,-2.57 0.5,-0.72 1.22,-1.09 2.15,-1.09 0.53,0 0.96,0.11 1.31,0.33 z m -2.54,5.1 c 0.31,0.49 0.79,0.74 1.47,0.74 0.52,0 0.95,-0.23 1.29,-0.69 0.34,-0.46 0.5,-1.11 0.5,-1.97 0,-0.86 -0.17,-1.5 -0.52,-1.91 -0.35,-0.41 -0.78,-0.62 -1.29,-0.62 -0.57,0 -1.03,0.22 -1.38,0.66 -0.35,0.44 -0.53,1.09 -0.53,1.95 0,0.74 0.15,1.35 0.46,1.84 z" />
		<path id="path14" d="m 177.98,29.15 c 0.26,-0.03 0.44,-0.14 0.53,-0.33 0.05,-0.1 0.08,-0.25 0.08,-0.43 0,-0.39 -0.14,-0.67 -0.41,-0.84 -0.28,-0.17 -0.67,-0.26 -1.19,-0.26 -0.6,0 -1.02,0.16 -1.27,0.48 -0.14,0.18 -0.23,0.44 -0.27,0.79 h -1.06 c 0.02,-0.84 0.29,-1.43 0.81,-1.76 0.52,-0.33 1.13,-0.49 1.81,-0.49 0.8,0 1.45,0.16 1.94,0.47 0.49,0.31 0.74,0.79 0.74,1.43 v 3.9 c 0,0.12 0.02,0.21 0.07,0.29 0.05,0.07 0.15,0.11 0.31,0.11 0.05,0 0.11,0 0.17,-0.01 0.06,-0.01 0.13,-0.02 0.2,-0.03 v 0.85 c -0.18,0.05 -0.31,0.08 -0.4,0.09 -0.09,0.01 -0.22,0.02 -0.38,0.02 -0.39,0 -0.68,-0.14 -0.85,-0.42 -0.09,-0.15 -0.16,-0.36 -0.2,-0.63 -0.23,0.31 -0.57,0.58 -1,0.8 -0.44,0.23 -0.92,0.34 -1.44,0.34 -0.63,0 -1.15,-0.19 -1.55,-0.58 -0.4,-0.38 -0.6,-0.86 -0.6,-1.44 0,-0.63 0.2,-1.12 0.59,-1.47 0.39,-0.35 0.91,-0.56 1.55,-0.64 z m -2.41,3.09 c 0.24,0.19 0.53,0.28 0.86,0.28 0.4,0 0.79,-0.09 1.17,-0.28 0.64,-0.31 0.95,-0.81 0.95,-1.51 v -0.92 c -0.14,0.09 -0.32,0.17 -0.54,0.23 -0.22,0.06 -0.43,0.11 -0.65,0.13 l -0.69,0.08 c -0.41,0.05 -0.73,0.14 -0.94,0.25 -0.36,0.2 -0.53,0.51 -0.53,0.95 0.01,0.34 0.13,0.6 0.37,0.79 z" />
		<path id="path16" d="m 186.16,30.26 c 0.03,0.53 0.15,0.96 0.36,1.29 0.4,0.62 1.11,0.93 2.13,0.93 0.46,0 0.87,-0.07 1.25,-0.2 0.73,-0.26 1.09,-0.74 1.09,-1.42 0,-0.51 -0.15,-0.88 -0.46,-1.09 -0.31,-0.21 -0.8,-0.39 -1.46,-0.55 l -1.22,-0.28 c -0.8,-0.18 -1.36,-0.39 -1.7,-0.61 -0.57,-0.39 -0.86,-0.97 -0.86,-1.75 0,-0.84 0.28,-1.53 0.85,-2.07 0.56,-0.54 1.36,-0.81 2.4,-0.81 0.95,0 1.76,0.24 2.43,0.71 0.66,0.47 1,1.23 1,2.26 h -1.19 c -0.06,-0.5 -0.19,-0.88 -0.39,-1.15 -0.37,-0.49 -1,-0.73 -1.88,-0.73 -0.71,0 -1.23,0.16 -1.54,0.47 -0.31,0.31 -0.47,0.68 -0.47,1.09 0,0.46 0.18,0.79 0.55,1 0.24,0.14 0.79,0.31 1.64,0.51 l 1.27,0.3 c 0.61,0.14 1.08,0.34 1.41,0.59 0.57,0.44 0.86,1.07 0.86,1.9 0,1.03 -0.37,1.77 -1.1,2.22 -0.73,0.44 -1.58,0.67 -2.55,0.67 -1.13,0 -2.02,-0.3 -2.66,-0.89 -0.64,-0.59 -0.95,-1.39 -0.94,-2.39 z" />
		<path id="path18" d="m 198.34,26.85 c 0.48,0.37 0.77,1.01 0.87,1.92 h -1.11 c -0.07,-0.42 -0.22,-0.77 -0.46,-1.05 -0.24,-0.28 -0.63,-0.42 -1.16,-0.42 -0.73,0 -1.25,0.36 -1.57,1.07 -0.2,0.46 -0.31,1.03 -0.31,1.71 0,0.68 0.14,1.25 0.43,1.72 0.29,0.46 0.74,0.7 1.36,0.7 0.47,0 0.85,-0.14 1.13,-0.43 0.28,-0.29 0.47,-0.69 0.58,-1.19 h 1.11 c -0.13,0.9 -0.44,1.56 -0.95,1.98 -0.51,0.42 -1.16,0.63 -1.95,0.63 -0.89,0 -1.6,-0.32 -2.13,-0.97 -0.53,-0.65 -0.79,-1.46 -0.79,-2.43 0,-1.19 0.29,-2.12 0.87,-2.79 0.58,-0.66 1.32,-1 2.22,-1 0.75,-0.01 1.37,0.17 1.86,0.55 z" />
		<path id="path20" d="m 200.36,23.93 h 1.14 v 3.45 c 0.27,-0.34 0.51,-0.58 0.73,-0.72 0.37,-0.24 0.83,-0.36 1.38,-0.36 0.99,0 1.66,0.35 2.01,1.04 0.19,0.38 0.29,0.9 0.29,1.57 v 4.36 h -1.17 v -4.29 c 0,-0.5 -0.06,-0.87 -0.19,-1.1 -0.21,-0.37 -0.6,-0.56 -1.17,-0.56 -0.48,0 -0.91,0.16 -1.29,0.49 -0.39,0.33 -0.58,0.94 -0.58,1.85 v 3.61 h -1.14 v -9.34 z" />
		<path id="path22" d="m 212.51,27.16 c 0.6,0.58 0.9,1.44 0.9,2.57 0,1.09 -0.26,2 -0.79,2.71 -0.53,0.71 -1.35,1.07 -2.47,1.07 -0.93,0 -1.67,-0.32 -2.21,-0.95 -0.55,-0.63 -0.82,-1.48 -0.82,-2.54 0,-1.14 0.29,-2.04 0.86,-2.72 0.58,-0.67 1.35,-1.01 2.32,-1.01 0.88,0 1.61,0.29 2.21,0.87 z m -0.7,4.5 c 0.28,-0.57 0.42,-1.21 0.42,-1.91 0,-0.63 -0.1,-1.15 -0.3,-1.54 -0.32,-0.63 -0.87,-0.94 -1.65,-0.94 -0.69,0 -1.2,0.27 -1.51,0.8 -0.32,0.53 -0.47,1.17 -0.47,1.92 0,0.72 0.16,1.32 0.47,1.81 0.31,0.48 0.81,0.72 1.5,0.72 0.74,0 1.26,-0.28 1.54,-0.86 z" />
		<path id="path24" d="m 219.74,27.16 c 0.6,0.58 0.9,1.44 0.9,2.57 0,1.09 -0.26,2 -0.79,2.71 -0.53,0.71 -1.35,1.07 -2.47,1.07 -0.93,0 -1.67,-0.32 -2.21,-0.95 -0.55,-0.63 -0.82,-1.48 -0.82,-2.54 0,-1.14 0.29,-2.04 0.86,-2.72 0.58,-0.67 1.35,-1.01 2.32,-1.01 0.88,0 1.61,0.29 2.21,0.87 z m -0.7,4.5 c 0.28,-0.57 0.42,-1.21 0.42,-1.91 0,-0.63 -0.1,-1.15 -0.3,-1.54 -0.32,-0.63 -0.87,-0.94 -1.65,-0.94 -0.69,0 -1.2,0.27 -1.51,0.8 -0.32,0.53 -0.47,1.17 -0.47,1.92 0,0.72 0.16,1.32 0.47,1.81 0.31,0.48 0.81,0.72 1.5,0.72 0.74,0 1.26,-0.28 1.54,-0.86 z" />
		<path id="path26" d="m 222.08,23.93 h 1.14 v 9.34 h -1.14 z" />
		<path id="path28" d="m 140.97,41.78 c 0.6,0.58 0.9,1.44 0.9,2.57 0,1.09 -0.27,2 -0.79,2.71 -0.53,0.71 -1.35,1.07 -2.47,1.07 -0.93,0 -1.67,-0.31 -2.21,-0.95 -0.55,-0.63 -0.82,-1.48 -0.82,-2.54 0,-1.14 0.29,-2.05 0.86,-2.72 0.58,-0.67 1.35,-1.01 2.32,-1.01 0.87,0 1.61,0.29 2.21,0.87 z m -0.71,4.51 c 0.28,-0.57 0.42,-1.21 0.42,-1.91 0,-0.63 -0.1,-1.15 -0.3,-1.54 -0.32,-0.63 -0.87,-0.94 -1.65,-0.94 -0.69,0 -1.2,0.27 -1.51,0.8 -0.32,0.53 -0.47,1.17 -0.47,1.92 0,0.72 0.16,1.32 0.47,1.8 0.31,0.48 0.81,0.72 1.5,0.72 0.75,0.01 1.26,-0.28 1.54,-0.85 z" />
		<path id="path30" d="m 143.8,39.04 c 0.27,-0.39 0.78,-0.58 1.54,-0.58 0.07,0 0.15,0 0.22,0.01 0.08,0.01 0.16,0.01 0.26,0.02 v 1.05 c -0.12,-0.01 -0.2,-0.02 -0.26,-0.03 -0.05,0 -0.1,-0.01 -0.15,-0.01 -0.35,0 -0.55,0.09 -0.62,0.27 -0.07,0.18 -0.1,0.63 -0.1,1.36 h 1.13 v 0.91 h -1.13 v 5.86 h -1.14 v -5.86 h -0.95 v -0.91 h 0.95 v -1.06 c 0.02,-0.47 0.1,-0.81 0.25,-1.03 z" />
		<path id="path32" d="m 150.76,38.57 h 4.17 c 0.83,0 1.49,0.23 2,0.7 0.51,0.47 0.76,1.12 0.76,1.97 0,0.73 -0.23,1.36 -0.68,1.9 -0.46,0.54 -1.15,0.81 -2.08,0.81 h -2.91 v 3.95 h -1.27 v -9.33 z m 4.9,1.27 c -0.28,-0.13 -0.66,-0.2 -1.14,-0.2 h -2.49 v 3.23 h 2.49 c 0.56,0 1.02,-0.12 1.37,-0.36 0.35,-0.24 0.53,-0.67 0.53,-1.28 0,-0.68 -0.26,-1.14 -0.76,-1.39 z" />
		<path id="path34" d="m 160.3,41.1 v 4.51 c 0,0.35 0.05,0.63 0.16,0.85 0.2,0.41 0.56,0.61 1.1,0.61 0.77,0 1.3,-0.35 1.57,-1.07 0.15,-0.38 0.23,-0.9 0.23,-1.57 V 41.1 h 1.14 v 6.8 h -1.08 l 0.01,-1 c -0.14,0.26 -0.33,0.48 -0.54,0.66 -0.43,0.36 -0.94,0.54 -1.55,0.54 -0.95,0 -1.59,-0.32 -1.94,-0.97 -0.19,-0.35 -0.28,-0.81 -0.28,-1.39 V 41.1 Z" />
		<path id="path36" d="m 166.3,38.55 h 1.11 v 3.36 c 0.25,-0.32 0.55,-0.57 0.9,-0.74 0.35,-0.17 0.73,-0.26 1.13,-0.26 0.85,0 1.54,0.29 2.07,0.88 0.53,0.58 0.79,1.45 0.79,2.58 0,1.08 -0.26,1.98 -0.78,2.69 -0.52,0.71 -1.25,1.07 -2.17,1.07 -0.52,0 -0.96,-0.13 -1.31,-0.38 -0.21,-0.15 -0.44,-0.39 -0.68,-0.71 v 0.86 h -1.05 v -9.35 z m 4.37,7.83 c 0.31,-0.49 0.46,-1.14 0.46,-1.95 0,-0.72 -0.15,-1.31 -0.46,-1.79 -0.31,-0.47 -0.76,-0.71 -1.36,-0.71 -0.52,0 -0.98,0.19 -1.37,0.58 -0.39,0.39 -0.59,1.03 -0.59,1.91 0,0.64 0.08,1.16 0.24,1.56 0.3,0.75 0.86,1.13 1.69,1.13 0.62,0 1.08,-0.24 1.39,-0.73 z" />
		<path id="path38" d="m 173.65,38.55 h 1.14 v 9.34 h -1.14 z" />
		<path id="path40" d="m 176.51,39.85 h 1.14 v -1.3 h -1.14 z m 0,8.05 h 1.14 v -6.77 h -1.14 z" />
		<path id="path42" d="m 183.88,41.47 c 0.48,0.37 0.77,1.01 0.87,1.92 h -1.11 c -0.07,-0.42 -0.22,-0.77 -0.46,-1.05 -0.24,-0.28 -0.63,-0.42 -1.16,-0.42 -0.73,0 -1.25,0.36 -1.57,1.07 -0.2,0.46 -0.31,1.03 -0.31,1.71 0,0.68 0.14,1.25 0.43,1.72 0.29,0.46 0.74,0.7 1.36,0.7 0.47,0 0.85,-0.14 1.13,-0.43 0.28,-0.29 0.47,-0.69 0.58,-1.19 h 1.11 c -0.13,0.9 -0.44,1.57 -0.95,1.98 -0.51,0.42 -1.16,0.63 -1.95,0.63 -0.89,0 -1.6,-0.32 -2.13,-0.97 -0.53,-0.65 -0.8,-1.46 -0.8,-2.43 0,-1.19 0.29,-2.12 0.87,-2.79 0.58,-0.66 1.32,-1 2.22,-1 0.76,-0.01 1.39,0.18 1.87,0.55 z" />
		<path id="path44" d="m 190.48,44.88 c 0.03,0.53 0.15,0.96 0.36,1.29 0.4,0.62 1.11,0.93 2.13,0.93 0.46,0 0.87,-0.07 1.25,-0.2 0.72,-0.26 1.09,-0.74 1.09,-1.42 0,-0.51 -0.15,-0.88 -0.46,-1.09 -0.31,-0.21 -0.8,-0.39 -1.46,-0.55 l -1.22,-0.28 c -0.8,-0.18 -1.37,-0.39 -1.7,-0.61 -0.57,-0.39 -0.86,-0.97 -0.86,-1.75 0,-0.84 0.28,-1.53 0.85,-2.07 0.56,-0.54 1.36,-0.81 2.4,-0.81 0.95,0 1.76,0.24 2.43,0.71 0.67,0.47 1,1.22 1,2.26 h -1.19 c -0.06,-0.5 -0.19,-0.88 -0.39,-1.15 -0.37,-0.49 -1,-0.73 -1.88,-0.73 -0.71,0 -1.23,0.16 -1.54,0.47 -0.31,0.31 -0.47,0.68 -0.47,1.09 0,0.46 0.18,0.79 0.55,1 0.24,0.14 0.79,0.3 1.64,0.51 l 1.27,0.3 c 0.61,0.14 1.08,0.34 1.41,0.59 0.57,0.44 0.86,1.07 0.86,1.9 0,1.03 -0.37,1.77 -1.1,2.22 -0.73,0.44 -1.58,0.67 -2.55,0.67 -1.13,0 -2.02,-0.3 -2.66,-0.89 -0.64,-0.59 -0.95,-1.39 -0.94,-2.39 z" />
		<path id="path46" d="m 202.38,41.28 c 0.45,0.23 0.79,0.52 1.03,0.88 0.23,0.34 0.38,0.74 0.45,1.2 0.07,0.31 0.1,0.81 0.1,1.5 h -4.95 c 0.02,0.69 0.18,1.25 0.49,1.67 0.3,0.42 0.77,0.63 1.41,0.63 0.59,0 1.07,-0.2 1.42,-0.59 0.2,-0.23 0.34,-0.49 0.42,-0.79 h 1.13 c -0.03,0.25 -0.13,0.53 -0.3,0.83 -0.17,0.3 -0.35,0.55 -0.56,0.75 -0.34,0.34 -0.77,0.56 -1.28,0.68 -0.27,0.07 -0.58,0.1 -0.93,0.1 -0.84,0 -1.55,-0.31 -2.14,-0.92 -0.59,-0.62 -0.88,-1.48 -0.88,-2.58 0,-1.09 0.29,-1.98 0.88,-2.66 0.59,-0.68 1.36,-1.02 2.31,-1.02 0.48,-0.02 0.95,0.1 1.4,0.32 z m 0.41,2.66 c -0.05,-0.5 -0.15,-0.89 -0.32,-1.19 -0.31,-0.55 -0.83,-0.83 -1.56,-0.83 -0.52,0 -0.96,0.19 -1.31,0.57 -0.35,0.38 -0.54,0.86 -0.56,1.45 z" />
		<path id="path48" d="m 205.44,41.1 h 1.08 v 1.17 c 0.09,-0.23 0.31,-0.5 0.66,-0.83 0.35,-0.33 0.75,-0.49 1.21,-0.49 0.02,0 0.06,0 0.11,0.01 0.05,0 0.14,0.01 0.26,0.02 v 1.2 c -0.07,-0.01 -0.13,-0.02 -0.19,-0.02 -0.06,0 -0.12,-0.01 -0.19,-0.01 -0.58,0 -1.02,0.19 -1.33,0.56 -0.31,0.37 -0.46,0.8 -0.46,1.28 v 3.91 h -1.14 v -6.8 z" />
		<path id="path50" d="m 210.29,41.1 1.81,5.53 1.89,-5.53 h 1.25 l -2.56,6.8 h -1.22 l -2.51,-6.8 z" />
		<path id="path52" d="m 216.24,38.55 h 1.14 v 1.3 h -1.14 z m 0,2.58 h 1.14 v 6.77 h -1.14 z" />
		<path id="path54" d="m 223.6,41.47 c 0.48,0.37 0.77,1.01 0.87,1.92 h -1.11 c -0.07,-0.42 -0.22,-0.77 -0.46,-1.05 -0.24,-0.28 -0.63,-0.42 -1.17,-0.42 -0.73,0 -1.25,0.36 -1.57,1.07 -0.2,0.46 -0.31,1.03 -0.31,1.71 0,0.68 0.14,1.25 0.43,1.72 0.29,0.46 0.74,0.7 1.36,0.7 0.47,0 0.85,-0.14 1.13,-0.43 0.28,-0.29 0.47,-0.69 0.58,-1.19 h 1.11 c -0.13,0.9 -0.44,1.57 -0.95,1.98 -0.51,0.42 -1.16,0.63 -1.95,0.63 -0.89,0 -1.6,-0.32 -2.13,-0.97 -0.53,-0.65 -0.79,-1.46 -0.79,-2.43 0,-1.19 0.29,-2.12 0.87,-2.79 0.58,-0.66 1.32,-1 2.22,-1 0.77,-0.01 1.39,0.18 1.87,0.55 z" />
		<path id="path56" d="m 229.82,41.28 c 0.45,0.23 0.79,0.52 1.03,0.88 0.23,0.34 0.38,0.74 0.46,1.2 0.07,0.31 0.1,0.81 0.1,1.5 h -4.95 c 0.02,0.69 0.18,1.25 0.49,1.67 0.3,0.42 0.77,0.63 1.41,0.63 0.59,0 1.07,-0.2 1.42,-0.59 0.2,-0.23 0.34,-0.49 0.42,-0.79 h 1.13 c -0.03,0.25 -0.13,0.53 -0.3,0.83 -0.17,0.3 -0.35,0.55 -0.56,0.75 -0.34,0.34 -0.77,0.56 -1.28,0.68 -0.27,0.07 -0.58,0.1 -0.93,0.1 -0.84,0 -1.56,-0.31 -2.14,-0.92 -0.59,-0.62 -0.88,-1.48 -0.88,-2.58 0,-1.09 0.29,-1.98 0.88,-2.66 0.59,-0.68 1.36,-1.02 2.31,-1.02 0.48,-0.02 0.94,0.1 1.39,0.32 z m 0.42,2.66 c -0.05,-0.5 -0.15,-0.89 -0.32,-1.19 -0.31,-0.55 -0.83,-0.83 -1.56,-0.83 -0.52,0 -0.96,0.19 -1.31,0.57 -0.35,0.38 -0.54,0.86 -0.56,1.45 z" />
	</g>
	<rect id="rect60" height="23.959999" width="11.18" class="st0" y="24.040001" x="66.519997" />
	<path id="path62" d="m 92.36,29.19 -1.61,-3.06 -1.63,3.06 c 0,0 -0.04,0.14 -0.25,0.23 -0.15,0.06 -0.27,0.07 -0.49,-0.04 l -1.48,-0.89 1.07,4.99 c 0,0 0.07,0.3 -0.19,0.45 -0.26,0.15 -0.49,-0.05 -0.49,-0.05 l -2.17,-2.4 c 0,0 -0.56,1.24 -0.56,1.23 -0.04,0.15 -0.17,0.25 -0.17,0.25 0,0 -0.18,0.16 -0.47,0.08 l -2.26,-0.54 0.74,2.86 c 0,0 0.16,0.41 -0.25,0.63 l -0.71,0.35 4.52,3.61 c 0,0 0.13,0.12 0.14,0.26 0.01,0.11 0.02,0.18 -0.01,0.26 l -0.55,1.64 4.22,-0.75 c 0.38,-0.05 0.59,0.22 0.6,0.51 l -0.16,4.24 h 0.56 0.56 l -0.18,-4.23 c 0,0 -0.02,-0.24 0.16,-0.39 0.14,-0.12 0.26,-0.15 0.38,-0.14 l 4.28,0.76 -0.54,-1.61 c 0,0 -0.07,-0.12 -0.02,-0.3 0.04,-0.13 0.08,-0.21 0.21,-0.3 L 100.06,36.34 99.36,36 C 99.18,35.93 99,35.66 99.08,35.41 l 0.75,-2.91 -2.27,0.54 c -0.14,0.05 -0.48,0.05 -0.63,-0.32 v 0 l -0.56,-1.24 c 0,0 -1.94,2.21 -2.15,2.38 -0.09,0.07 -0.28,0.2 -0.52,0.05 -0.12,-0.08 -0.23,-0.2 -0.18,-0.45 l 1.06,-4.98 -1.5,0.91 c -0.18,0.11 -0.37,0.06 -0.38,0.06 -0.09,-0.03 -0.23,-0.09 -0.34,-0.26" class="st0" />
	<rect id="rect64" height="23.959999" width="11.17" class="st0" y="24.040001" x="103.79" />
	<g id="g132">
		<path id="path66" d="m 252.46,23.91 h 6.78 v 1.14 h -5.55 v 2.83 h 5.12 v 1.08 h -5.12 v 3.17 h 5.62 v 1.11 h -6.86 v -9.33 z m 5.14,-2.58 -1.7,1.84 h -0.88 l 1.17,-1.84 z" />
		<path id="path68" d="m 265.34,26.82 c 0.48,0.37 0.77,1.01 0.87,1.92 h -1.11 c -0.07,-0.42 -0.22,-0.77 -0.46,-1.05 -0.24,-0.28 -0.63,-0.42 -1.16,-0.42 -0.73,0 -1.25,0.36 -1.57,1.07 -0.2,0.46 -0.3,1.03 -0.3,1.71 0,0.68 0.14,1.25 0.43,1.72 0.29,0.46 0.74,0.7 1.36,0.7 0.48,0 0.85,-0.14 1.13,-0.43 0.28,-0.29 0.47,-0.69 0.58,-1.19 h 1.11 c -0.13,0.9 -0.45,1.56 -0.95,1.98 -0.51,0.42 -1.16,0.63 -1.95,0.63 -0.89,0 -1.6,-0.32 -2.13,-0.97 -0.53,-0.65 -0.79,-1.46 -0.79,-2.43 0,-1.19 0.29,-2.12 0.87,-2.79 0.58,-0.66 1.32,-1 2.22,-1 0.75,-0.01 1.37,0.17 1.85,0.55 z" />
		<path id="path70" d="m 272.29,27.13 c 0.6,0.58 0.9,1.44 0.9,2.57 0,1.09 -0.26,2 -0.8,2.71 -0.53,0.71 -1.35,1.07 -2.47,1.07 -0.93,0 -1.67,-0.32 -2.21,-0.95 -0.55,-0.63 -0.82,-1.48 -0.82,-2.54 0,-1.14 0.29,-2.04 0.86,-2.72 0.58,-0.67 1.35,-1.01 2.32,-1.01 0.88,0 1.62,0.29 2.22,0.87 z m -0.7,4.5 c 0.28,-0.57 0.42,-1.21 0.42,-1.91 0,-0.63 -0.1,-1.15 -0.3,-1.55 -0.32,-0.63 -0.87,-0.94 -1.65,-0.94 -0.69,0 -1.2,0.27 -1.51,0.8 -0.32,0.53 -0.47,1.17 -0.47,1.92 0,0.72 0.16,1.32 0.47,1.81 0.31,0.48 0.81,0.72 1.5,0.72 0.74,0.01 1.26,-0.28 1.54,-0.85 z" />
		<path id="path72" d="m 274.63,23.9 h 1.14 v 9.34 h -1.14 z" />
		<path id="path74" d="m 281.68,26.63 c 0.45,0.23 0.79,0.52 1.03,0.88 0.23,0.34 0.38,0.74 0.45,1.2 0.07,0.31 0.1,0.81 0.1,1.5 h -4.95 c 0.02,0.69 0.18,1.25 0.49,1.67 0.3,0.42 0.77,0.63 1.41,0.63 0.59,0 1.07,-0.2 1.42,-0.59 0.2,-0.23 0.34,-0.49 0.42,-0.79 h 1.13 c -0.03,0.25 -0.13,0.53 -0.3,0.83 -0.17,0.3 -0.35,0.55 -0.56,0.75 -0.34,0.34 -0.77,0.56 -1.28,0.68 -0.27,0.07 -0.58,0.1 -0.93,0.1 -0.84,0 -1.55,-0.31 -2.14,-0.92 -0.58,-0.62 -0.88,-1.48 -0.88,-2.59 0,-1.09 0.29,-1.98 0.88,-2.66 0.59,-0.68 1.36,-1.02 2.31,-1.02 0.48,-0.01 0.95,0.1 1.4,0.33 z m 0.41,2.66 c -0.05,-0.5 -0.15,-0.89 -0.32,-1.19 -0.31,-0.55 -0.83,-0.83 -1.56,-0.83 -0.52,0 -0.96,0.19 -1.31,0.57 -0.35,0.38 -0.54,0.86 -0.56,1.45 z" />
		<path id="path76" d="m 292.06,26.64 c 0.2,0.13 0.43,0.34 0.69,0.66 v -3.4 h 1.09 v 9.34 h -1.03 V 32.3 c -0.26,0.42 -0.58,0.71 -0.94,0.9 -0.36,0.18 -0.77,0.28 -1.24,0.28 -0.75,0 -1.4,-0.32 -1.95,-0.96 -0.55,-0.64 -0.82,-1.48 -0.82,-2.54 0,-0.99 0.25,-1.85 0.75,-2.57 0.5,-0.72 1.22,-1.09 2.15,-1.09 0.52,0 0.95,0.11 1.3,0.32 z m -2.54,5.11 c 0.3,0.49 0.79,0.74 1.47,0.74 0.52,0 0.95,-0.23 1.29,-0.69 0.34,-0.46 0.5,-1.11 0.5,-1.97 0,-0.86 -0.17,-1.5 -0.52,-1.92 -0.35,-0.41 -0.78,-0.62 -1.29,-0.62 -0.57,0 -1.03,0.22 -1.38,0.66 -0.35,0.44 -0.53,1.09 -0.53,1.95 0,0.75 0.15,1.36 0.46,1.85 z" />
		<path id="path78" d="m 299.75,26.63 c 0.45,0.23 0.79,0.52 1.03,0.88 0.23,0.34 0.38,0.74 0.46,1.2 0.07,0.31 0.1,0.81 0.1,1.5 h -4.95 c 0.02,0.69 0.18,1.25 0.49,1.67 0.3,0.42 0.77,0.63 1.41,0.63 0.59,0 1.07,-0.2 1.42,-0.59 0.2,-0.23 0.34,-0.49 0.42,-0.79 h 1.13 c -0.03,0.25 -0.13,0.53 -0.3,0.83 -0.17,0.3 -0.35,0.55 -0.56,0.75 -0.34,0.34 -0.77,0.56 -1.28,0.68 -0.27,0.07 -0.58,0.1 -0.93,0.1 -0.84,0 -1.56,-0.31 -2.14,-0.92 -0.58,-0.62 -0.88,-1.48 -0.88,-2.59 0,-1.09 0.29,-1.98 0.88,-2.66 0.59,-0.68 1.36,-1.02 2.31,-1.02 0.48,-0.01 0.94,0.1 1.39,0.33 z m 0.41,2.66 c -0.05,-0.5 -0.15,-0.89 -0.32,-1.19 -0.31,-0.55 -0.83,-0.83 -1.56,-0.83 -0.52,0 -0.96,0.19 -1.31,0.57 -0.35,0.38 -0.54,0.86 -0.56,1.45 z" />
		<path id="path80" d="m 306.43,23.9 h 1.14 v 9.34 h -1.14 z" />
		<path id="path82" d="m 312.92,29.12 c 0.26,-0.03 0.44,-0.14 0.53,-0.33 0.05,-0.1 0.08,-0.25 0.08,-0.43 0,-0.39 -0.14,-0.67 -0.42,-0.84 -0.28,-0.17 -0.67,-0.26 -1.19,-0.26 -0.59,0 -1.02,0.16 -1.27,0.48 -0.14,0.18 -0.23,0.44 -0.27,0.79 h -1.06 c 0.02,-0.84 0.29,-1.43 0.81,-1.76 0.52,-0.33 1.13,-0.49 1.81,-0.49 0.8,0 1.45,0.16 1.94,0.47 0.49,0.31 0.74,0.79 0.74,1.43 v 3.9 c 0,0.12 0.02,0.21 0.07,0.29 0.05,0.07 0.15,0.11 0.31,0.11 0.05,0 0.11,0 0.17,-0.01 0.06,-0.01 0.13,-0.02 0.2,-0.03 v 0.85 c -0.18,0.05 -0.31,0.08 -0.41,0.09 -0.09,0.01 -0.22,0.02 -0.38,0.02 -0.39,0 -0.68,-0.14 -0.85,-0.42 -0.09,-0.15 -0.16,-0.36 -0.2,-0.63 -0.23,0.31 -0.57,0.58 -1,0.8 -0.44,0.23 -0.92,0.34 -1.44,0.34 -0.63,0 -1.15,-0.19 -1.54,-0.58 -0.4,-0.38 -0.6,-0.86 -0.6,-1.44 0,-0.63 0.2,-1.12 0.59,-1.47 0.39,-0.35 0.91,-0.56 1.55,-0.64 z m -2.42,3.09 c 0.24,0.19 0.53,0.28 0.86,0.28 0.4,0 0.79,-0.09 1.17,-0.28 0.64,-0.31 0.95,-0.81 0.95,-1.51 v -0.92 c -0.14,0.09 -0.32,0.17 -0.54,0.23 -0.22,0.06 -0.44,0.11 -0.65,0.13 l -0.69,0.08 c -0.41,0.05 -0.73,0.14 -0.94,0.25 -0.36,0.2 -0.53,0.51 -0.53,0.95 0.01,0.34 0.13,0.6 0.37,0.79 z" />
		<path id="path84" d="m 320.65,24.38 c 0.27,-0.39 0.78,-0.58 1.54,-0.58 0.07,0 0.15,0 0.22,0.01 0.08,0.01 0.16,0.01 0.26,0.02 v 1.05 c -0.12,-0.01 -0.2,-0.02 -0.26,-0.03 -0.05,0 -0.1,-0.01 -0.15,-0.01 -0.35,0 -0.55,0.09 -0.62,0.27 -0.07,0.18 -0.1,0.63 -0.1,1.36 h 1.13 v 0.91 h -1.13 v 5.86 h -1.14 v -5.86 h -0.95 v -0.91 h 0.95 v -1.06 c 0.02,-0.46 0.1,-0.81 0.25,-1.03 z" />
		<path id="path86" d="m 328.66,27.13 c 0.6,0.58 0.9,1.44 0.9,2.57 0,1.09 -0.27,2 -0.8,2.71 -0.53,0.71 -1.35,1.07 -2.47,1.07 -0.93,0 -1.67,-0.32 -2.21,-0.95 -0.55,-0.63 -0.82,-1.48 -0.82,-2.54 0,-1.14 0.29,-2.04 0.86,-2.72 0.58,-0.67 1.35,-1.01 2.32,-1.01 0.88,0 1.62,0.29 2.22,0.87 z m -0.7,4.5 c 0.28,-0.57 0.42,-1.21 0.42,-1.91 0,-0.63 -0.1,-1.15 -0.3,-1.55 -0.32,-0.63 -0.87,-0.94 -1.65,-0.94 -0.69,0 -1.2,0.27 -1.51,0.8 -0.31,0.53 -0.47,1.17 -0.47,1.92 0,0.72 0.16,1.32 0.47,1.81 0.32,0.48 0.82,0.72 1.5,0.72 0.74,0.01 1.26,-0.28 1.54,-0.85 z" />
		<path id="path88" d="m 330.97,26.44 h 1.08 v 0.96 c 0.32,-0.4 0.66,-0.68 1.02,-0.86 0.36,-0.17 0.76,-0.26 1.2,-0.26 0.97,0 1.62,0.34 1.96,1.01 0.19,0.37 0.28,0.9 0.28,1.58 v 4.36 h -1.14 v -4.28 c 0,-0.42 -0.06,-0.75 -0.19,-1 -0.2,-0.42 -0.58,-0.63 -1.11,-0.63 -0.27,0 -0.5,0.03 -0.67,0.08 -0.32,0.09 -0.59,0.28 -0.83,0.56 -0.19,0.22 -0.32,0.46 -0.38,0.7 -0.06,0.24 -0.09,0.58 -0.09,1.03 v 3.56 h -1.14 v -6.81 z" />
		<path id="path90" d="m 342.67,26.82 c 0.48,0.37 0.77,1.01 0.87,1.92 h -1.11 c -0.07,-0.42 -0.22,-0.77 -0.46,-1.05 -0.24,-0.28 -0.63,-0.42 -1.16,-0.42 -0.73,0 -1.25,0.36 -1.57,1.07 -0.2,0.46 -0.3,1.03 -0.3,1.71 0,0.68 0.14,1.25 0.43,1.72 0.29,0.46 0.74,0.7 1.36,0.7 0.48,0 0.85,-0.14 1.13,-0.43 0.28,-0.29 0.47,-0.69 0.58,-1.19 h 1.11 c -0.13,0.9 -0.45,1.56 -0.95,1.98 -0.51,0.42 -1.16,0.63 -1.95,0.63 -0.89,0 -1.6,-0.32 -2.13,-0.97 -0.53,-0.65 -0.79,-1.46 -0.79,-2.43 0,-1.19 0.29,-2.12 0.87,-2.79 0.58,-0.66 1.32,-1 2.22,-1 0.75,-0.01 1.37,0.17 1.85,0.55 z" />
		<path id="path92" d="m 344.91,24.57 h 1.14 v 1.88 h 1.09 v 0.95 h -1.09 v 4.4 c 0,0.23 0.08,0.39 0.24,0.47 0.09,0.05 0.24,0.07 0.45,0.07 0.05,0 0.12,0 0.18,0 0.06,0 0.14,-0.01 0.22,-0.03 v 0.94 c -0.13,0.04 -0.27,0.07 -0.41,0.08 -0.14,0.02 -0.29,0.03 -0.46,0.03 -0.53,0 -0.89,-0.14 -1.08,-0.41 C 345,32.68 344.9,32.32 344.9,31.89 V 27.4 h -0.92 v -0.95 h 0.92 v -1.88 z" />
		<path id="path94" d="m 348.31,23.9 h 1.14 v 1.3 h -1.14 z m 0,2.57 h 1.14 v 6.77 h -1.14 z" />
		<path id="path96" d="m 356.12,27.13 c 0.6,0.58 0.9,1.44 0.9,2.57 0,1.09 -0.26,2 -0.8,2.71 -0.53,0.71 -1.35,1.07 -2.47,1.07 -0.93,0 -1.67,-0.32 -2.21,-0.95 -0.55,-0.63 -0.82,-1.48 -0.82,-2.54 0,-1.14 0.29,-2.04 0.86,-2.72 0.58,-0.67 1.35,-1.01 2.32,-1.01 0.88,0 1.62,0.29 2.22,0.87 z m -0.7,4.5 c 0.28,-0.57 0.42,-1.21 0.42,-1.91 0,-0.63 -0.1,-1.15 -0.3,-1.55 -0.32,-0.63 -0.87,-0.94 -1.65,-0.94 -0.69,0 -1.2,0.27 -1.51,0.8 -0.32,0.53 -0.47,1.17 -0.47,1.92 0,0.72 0.16,1.32 0.47,1.81 0.31,0.48 0.81,0.72 1.5,0.72 0.74,0.01 1.26,-0.28 1.54,-0.85 z" />
		<path id="path98" d="m 358.42,26.44 h 1.08 v 0.96 c 0.32,-0.4 0.66,-0.68 1.03,-0.86 0.36,-0.17 0.76,-0.26 1.2,-0.26 0.97,0 1.62,0.34 1.96,1.01 0.19,0.37 0.28,0.9 0.28,1.58 v 4.36 h -1.14 v -4.28 c 0,-0.42 -0.06,-0.75 -0.19,-1 -0.21,-0.42 -0.58,-0.63 -1.11,-0.63 -0.27,0 -0.5,0.03 -0.67,0.08 -0.32,0.09 -0.59,0.28 -0.83,0.56 -0.19,0.22 -0.32,0.46 -0.37,0.7 -0.06,0.24 -0.09,0.58 -0.09,1.03 v 3.56 h -1.14 v -6.81 z" />
		<path id="path100" d="m 252.1,41.1 h 1.11 v 0.88 c 0.23,-0.3 0.48,-0.54 0.75,-0.71 0.39,-0.25 0.84,-0.38 1.36,-0.38 0.77,0 1.43,0.3 1.97,0.89 0.54,0.59 0.81,1.44 0.81,2.53 0,1.48 -0.39,2.54 -1.17,3.18 -0.49,0.4 -1.07,0.6 -1.72,0.6 -0.51,0 -0.95,-0.11 -1.29,-0.33 -0.2,-0.13 -0.43,-0.34 -0.68,-0.65 v 3.45 h -1.14 z m 4.3,5.34 c 0.35,-0.45 0.53,-1.12 0.53,-2.02 0,-0.55 -0.08,-1.02 -0.23,-1.41 -0.3,-0.75 -0.84,-1.13 -1.62,-1.13 -0.79,0 -1.33,0.4 -1.63,1.2 -0.16,0.43 -0.23,0.97 -0.23,1.63 0,0.53 0.08,0.98 0.23,1.35 0.3,0.71 0.84,1.06 1.63,1.06 0.52,-0.01 0.97,-0.23 1.32,-0.68 z" />
		<path id="path102" d="m 260.57,41.07 v 4.51 c 0,0.35 0.05,0.63 0.16,0.85 0.2,0.41 0.56,0.61 1.1,0.61 0.77,0 1.3,-0.35 1.57,-1.07 0.15,-0.38 0.23,-0.9 0.23,-1.57 v -3.34 h 1.14 v 6.8 h -1.08 l 0.01,-1 c -0.14,0.26 -0.33,0.48 -0.54,0.66 -0.43,0.36 -0.94,0.54 -1.55,0.54 -0.95,0 -1.59,-0.32 -1.94,-0.97 -0.19,-0.35 -0.28,-0.81 -0.28,-1.39 v -4.62 h 1.18 z" />
		<path id="path104" d="m 266.56,38.52 h 1.11 v 3.36 c 0.25,-0.32 0.55,-0.57 0.9,-0.74 0.35,-0.17 0.73,-0.26 1.13,-0.26 0.85,0 1.54,0.29 2.07,0.88 0.53,0.58 0.79,1.45 0.79,2.58 0,1.08 -0.26,1.98 -0.78,2.69 -0.52,0.71 -1.25,1.07 -2.17,1.07 -0.52,0 -0.96,-0.13 -1.31,-0.38 -0.21,-0.15 -0.44,-0.39 -0.68,-0.71 v 0.86 h -1.05 v -9.35 z m 4.37,7.82 c 0.31,-0.49 0.46,-1.14 0.46,-1.95 0,-0.72 -0.15,-1.31 -0.46,-1.79 -0.31,-0.47 -0.76,-0.71 -1.36,-0.71 -0.52,0 -0.98,0.19 -1.37,0.58 -0.39,0.39 -0.59,1.03 -0.59,1.91 0,0.64 0.08,1.16 0.24,1.56 0.3,0.75 0.86,1.13 1.69,1.13 0.62,0.01 1.08,-0.23 1.39,-0.73 z" />
		<path id="path106" d="m 273.92,38.52 h 1.14 v 9.34 h -1.14 z" />
		<path id="path108" d="m 276.77,38.52 h 1.14 v 1.3 h -1.14 z m 0,2.58 h 1.14 v 6.77 h -1.14 z" />
		<path id="path110" d="m 283.49,41.34 c 0.21,0.15 0.41,0.38 0.61,0.68 v -0.95 h 1.08 v 9.5 h -1.14 V 47.1 c -0.19,0.31 -0.45,0.55 -0.79,0.73 -0.34,0.18 -0.75,0.27 -1.26,0.27 -0.72,0 -1.37,-0.28 -1.94,-0.85 -0.57,-0.57 -0.86,-1.43 -0.86,-2.6 0,-1.09 0.27,-1.99 0.8,-2.69 0.53,-0.7 1.23,-1.05 2.08,-1.05 0.56,0 1.03,0.14 1.42,0.43 z m -2.86,4.71 c 0.29,0.71 0.81,1.06 1.57,1.06 0.79,0 1.34,-0.37 1.64,-1.12 0.16,-0.41 0.25,-0.94 0.25,-1.58 0,-0.59 -0.09,-1.08 -0.27,-1.48 -0.31,-0.67 -0.85,-1.01 -1.63,-1.01 -0.5,0 -0.92,0.22 -1.27,0.65 -0.35,0.43 -0.53,1.1 -0.53,2 -0.01,0.59 0.07,1.08 0.24,1.48 z" />
		<path id="path112" d="m 288.03,41.07 v 4.51 c 0,0.35 0.05,0.63 0.16,0.85 0.2,0.41 0.56,0.61 1.1,0.61 0.77,0 1.3,-0.35 1.57,-1.07 0.15,-0.38 0.23,-0.9 0.23,-1.57 v -3.34 h 1.14 v 6.8 h -1.08 l 0.01,-1 c -0.14,0.26 -0.33,0.48 -0.54,0.66 -0.43,0.36 -0.94,0.54 -1.55,0.54 -0.95,0 -1.59,-0.32 -1.94,-0.97 -0.19,-0.35 -0.28,-0.81 -0.28,-1.39 v -4.62 h 1.18 z" />
		<path id="path114" d="m 298.32,41.25 c 0.45,0.23 0.79,0.52 1.03,0.88 0.23,0.34 0.38,0.74 0.46,1.2 0.07,0.31 0.1,0.81 0.1,1.5 h -4.95 c 0.02,0.69 0.18,1.25 0.49,1.67 0.3,0.42 0.77,0.63 1.41,0.63 0.59,0 1.07,-0.2 1.42,-0.59 0.2,-0.23 0.34,-0.49 0.42,-0.79 h 1.13 c -0.03,0.25 -0.13,0.53 -0.3,0.83 -0.17,0.3 -0.35,0.55 -0.56,0.75 -0.34,0.34 -0.77,0.56 -1.28,0.68 -0.27,0.07 -0.58,0.1 -0.93,0.1 -0.84,0 -1.56,-0.31 -2.14,-0.92 -0.59,-0.62 -0.88,-1.48 -0.88,-2.58 0,-1.09 0.29,-1.98 0.88,-2.66 0.59,-0.68 1.36,-1.02 2.31,-1.02 0.47,-0.02 0.94,0.09 1.39,0.32 z m 0.41,2.66 c -0.05,-0.5 -0.15,-0.89 -0.32,-1.19 -0.31,-0.55 -0.83,-0.83 -1.56,-0.83 -0.52,0 -0.96,0.19 -1.31,0.57 -0.35,0.38 -0.54,0.86 -0.56,1.45 z" />
		<path id="path116" d="m 308.7,41.27 c 0.2,0.13 0.43,0.34 0.69,0.66 v -3.41 h 1.09 v 9.34 h -1.03 v -0.94 c -0.26,0.42 -0.58,0.71 -0.94,0.9 -0.36,0.18 -0.77,0.28 -1.24,0.28 -0.75,0 -1.4,-0.32 -1.95,-0.95 -0.55,-0.64 -0.82,-1.48 -0.82,-2.54 0,-0.99 0.25,-1.85 0.75,-2.57 0.5,-0.73 1.22,-1.09 2.15,-1.09 0.51,-0.01 0.95,0.1 1.3,0.32 z m -2.55,5.11 c 0.31,0.49 0.8,0.74 1.47,0.74 0.52,0 0.95,-0.23 1.29,-0.68 0.34,-0.46 0.5,-1.11 0.5,-1.97 0,-0.86 -0.17,-1.5 -0.52,-1.92 -0.35,-0.41 -0.78,-0.62 -1.29,-0.62 -0.57,0 -1.03,0.22 -1.38,0.66 -0.35,0.44 -0.53,1.09 -0.53,1.95 0.01,0.73 0.16,1.34 0.46,1.84 z" />
		<path id="path118" d="m 313.33,41.07 v 4.51 c 0,0.35 0.05,0.63 0.16,0.85 0.2,0.41 0.56,0.61 1.1,0.61 0.77,0 1.29,-0.35 1.57,-1.07 0.15,-0.38 0.23,-0.9 0.23,-1.57 v -3.34 h 1.14 v 6.8 h -1.08 l 0.01,-1 c -0.15,0.26 -0.33,0.48 -0.54,0.66 -0.43,0.36 -0.94,0.54 -1.55,0.54 -0.95,0 -1.59,-0.32 -1.94,-0.97 -0.19,-0.35 -0.28,-0.81 -0.28,-1.39 v -4.62 h 1.18 z" />
		<path id="path120" d="m 329.77,39.22 c 0.64,0.62 1,1.33 1.07,2.12 h -1.23 c -0.14,-0.6 -0.41,-1.08 -0.82,-1.43 -0.41,-0.35 -0.98,-0.53 -1.72,-0.53 -0.9,0 -1.63,0.32 -2.19,0.97 -0.56,0.65 -0.83,1.63 -0.83,2.97 0,1.09 0.25,1.98 0.75,2.66 0.5,0.68 1.25,1.02 2.24,1.02 0.91,0 1.61,-0.36 2.09,-1.07 0.25,-0.38 0.44,-0.87 0.57,-1.48 h 1.23 c -0.11,0.98 -0.47,1.81 -1.08,2.47 -0.73,0.8 -1.72,1.2 -2.96,1.2 -1.07,0 -1.97,-0.33 -2.69,-0.98 -0.96,-0.87 -1.43,-2.21 -1.43,-4.02 0,-1.38 0.36,-2.5 1.08,-3.39 0.78,-0.96 1.85,-1.44 3.21,-1.44 1.16,0 2.07,0.31 2.71,0.93 z" />
		<path id="path122" d="m 336.05,43.75 c 0.26,-0.03 0.44,-0.14 0.53,-0.33 0.05,-0.1 0.08,-0.25 0.08,-0.43 0,-0.39 -0.14,-0.67 -0.42,-0.84 -0.28,-0.17 -0.67,-0.26 -1.19,-0.26 -0.6,0 -1.02,0.16 -1.27,0.48 -0.14,0.18 -0.23,0.44 -0.27,0.79 h -1.06 c 0.02,-0.84 0.29,-1.43 0.81,-1.76 0.52,-0.33 1.13,-0.49 1.81,-0.49 0.8,0 1.45,0.16 1.94,0.47 0.49,0.31 0.74,0.79 0.74,1.43 v 3.9 c 0,0.12 0.02,0.21 0.07,0.28 0.05,0.07 0.15,0.11 0.31,0.11 0.05,0 0.11,0 0.17,-0.01 0.06,-0.01 0.13,-0.02 0.2,-0.03 v 0.85 c -0.18,0.05 -0.31,0.08 -0.4,0.1 C 338.02,48 337.89,48 337.73,48 c -0.39,0 -0.68,-0.14 -0.85,-0.42 -0.09,-0.15 -0.16,-0.36 -0.2,-0.63 -0.23,0.31 -0.57,0.58 -1,0.8 -0.44,0.23 -0.92,0.34 -1.44,0.34 -0.63,0 -1.15,-0.19 -1.55,-0.57 -0.4,-0.38 -0.6,-0.86 -0.6,-1.44 0,-0.63 0.2,-1.12 0.59,-1.47 0.39,-0.35 0.91,-0.56 1.55,-0.64 z m -2.41,3.08 c 0.24,0.19 0.53,0.28 0.86,0.28 0.4,0 0.79,-0.09 1.17,-0.28 0.64,-0.31 0.95,-0.81 0.95,-1.51 V 44.4 c -0.14,0.09 -0.32,0.17 -0.54,0.23 -0.22,0.06 -0.44,0.1 -0.65,0.13 l -0.69,0.08 c -0.41,0.05 -0.73,0.14 -0.94,0.25 -0.36,0.2 -0.53,0.51 -0.53,0.95 0.01,0.34 0.13,0.6 0.37,0.79 z" />
		<path id="path124" d="m 339.65,41.07 h 1.08 v 0.96 c 0.32,-0.4 0.66,-0.68 1.03,-0.86 0.36,-0.17 0.76,-0.26 1.2,-0.26 0.97,0 1.62,0.34 1.96,1.01 0.19,0.37 0.28,0.9 0.28,1.58 v 4.36 h -1.14 v -4.28 c 0,-0.41 -0.06,-0.75 -0.19,-1 -0.2,-0.42 -0.58,-0.63 -1.11,-0.63 -0.27,0 -0.5,0.03 -0.67,0.08 -0.32,0.09 -0.59,0.28 -0.83,0.56 -0.19,0.22 -0.32,0.46 -0.37,0.7 -0.06,0.24 -0.09,0.58 -0.09,1.02 v 3.56 h -1.14 v -6.8 z" />
		<path id="path126" d="m 350.51,43.75 c 0.26,-0.03 0.44,-0.14 0.53,-0.33 0.05,-0.1 0.08,-0.25 0.08,-0.43 0,-0.39 -0.14,-0.67 -0.41,-0.84 -0.28,-0.17 -0.67,-0.26 -1.19,-0.26 -0.6,0 -1.02,0.16 -1.27,0.48 -0.14,0.18 -0.23,0.44 -0.27,0.79 h -1.06 c 0.02,-0.84 0.29,-1.43 0.81,-1.76 0.52,-0.33 1.13,-0.49 1.81,-0.49 0.8,0 1.45,0.16 1.94,0.47 0.49,0.31 0.74,0.79 0.74,1.43 v 3.9 c 0,0.12 0.02,0.21 0.07,0.28 0.05,0.07 0.15,0.11 0.31,0.11 0.05,0 0.11,0 0.17,-0.01 0.06,-0.01 0.13,-0.02 0.2,-0.03 v 0.85 c -0.18,0.05 -0.31,0.08 -0.4,0.1 C 352.47,48 352.35,48 352.19,48 c -0.39,0 -0.68,-0.14 -0.85,-0.42 -0.09,-0.15 -0.16,-0.36 -0.2,-0.63 -0.23,0.31 -0.57,0.58 -1,0.8 -0.44,0.23 -0.92,0.34 -1.44,0.34 -0.63,0 -1.15,-0.19 -1.55,-0.57 -0.4,-0.38 -0.6,-0.86 -0.6,-1.44 0,-0.63 0.2,-1.12 0.59,-1.47 0.39,-0.35 0.91,-0.56 1.55,-0.64 z m -2.41,3.08 c 0.24,0.19 0.53,0.28 0.86,0.28 0.4,0 0.79,-0.09 1.17,-0.28 0.64,-0.31 0.95,-0.81 0.95,-1.51 V 44.4 c -0.14,0.09 -0.32,0.17 -0.54,0.23 -0.22,0.06 -0.43,0.1 -0.65,0.13 l -0.69,0.08 c -0.41,0.05 -0.73,0.14 -0.94,0.25 -0.36,0.2 -0.53,0.51 -0.53,0.95 0.01,0.34 0.13,0.6 0.37,0.79 z" />
		<path id="path128" d="m 357.84,41.27 c 0.2,0.13 0.43,0.34 0.69,0.66 v -3.41 h 1.09 v 9.34 h -1.03 v -0.94 c -0.26,0.42 -0.58,0.71 -0.94,0.9 -0.36,0.18 -0.77,0.28 -1.24,0.28 -0.75,0 -1.4,-0.32 -1.95,-0.95 -0.55,-0.64 -0.83,-1.48 -0.83,-2.54 0,-0.99 0.25,-1.85 0.75,-2.57 0.5,-0.73 1.22,-1.09 2.15,-1.09 0.53,-0.01 0.96,0.1 1.31,0.32 z m -2.54,5.11 c 0.31,0.49 0.79,0.74 1.47,0.74 0.52,0 0.95,-0.23 1.29,-0.68 0.34,-0.46 0.5,-1.11 0.5,-1.97 0,-0.86 -0.17,-1.5 -0.52,-1.92 -0.35,-0.41 -0.78,-0.62 -1.29,-0.62 -0.57,0 -1.03,0.22 -1.38,0.66 -0.35,0.44 -0.53,1.09 -0.53,1.95 0,0.73 0.16,1.34 0.46,1.84 z" />
		<path id="path130" d="m 364.97,43.75 c 0.26,-0.03 0.44,-0.14 0.53,-0.33 0.05,-0.1 0.08,-0.25 0.08,-0.43 0,-0.39 -0.14,-0.67 -0.41,-0.84 -0.28,-0.17 -0.67,-0.26 -1.19,-0.26 -0.6,0 -1.02,0.16 -1.27,0.48 -0.14,0.18 -0.23,0.44 -0.27,0.79 h -1.06 c 0.02,-0.84 0.29,-1.43 0.81,-1.76 0.52,-0.33 1.13,-0.49 1.81,-0.49 0.8,0 1.45,0.16 1.94,0.47 0.49,0.31 0.74,0.79 0.74,1.43 v 3.9 c 0,0.12 0.02,0.21 0.07,0.28 0.05,0.07 0.15,0.11 0.31,0.11 0.05,0 0.11,0 0.17,-0.01 0.06,-0.01 0.13,-0.02 0.2,-0.03 v 0.85 c -0.18,0.05 -0.31,0.08 -0.4,0.1 C 366.93,48 366.81,48 366.65,48 c -0.39,0 -0.68,-0.14 -0.85,-0.42 -0.09,-0.15 -0.16,-0.36 -0.2,-0.63 -0.23,0.31 -0.57,0.58 -1,0.8 -0.44,0.23 -0.92,0.34 -1.44,0.34 -0.63,0 -1.15,-0.19 -1.55,-0.57 -0.4,-0.38 -0.6,-0.86 -0.6,-1.44 0,-0.63 0.2,-1.12 0.59,-1.47 0.39,-0.35 0.91,-0.56 1.55,-0.64 z m -2.41,3.08 c 0.24,0.19 0.53,0.28 0.86,0.28 0.4,0 0.79,-0.09 1.17,-0.28 0.64,-0.31 0.95,-0.81 0.95,-1.51 V 44.4 c -0.14,0.09 -0.32,0.17 -0.54,0.23 -0.22,0.06 -0.43,0.1 -0.65,0.13 l -0.69,0.08 c -0.41,0.05 -0.73,0.14 -0.94,0.25 -0.36,0.2 -0.53,0.51 -0.53,0.95 0.01,0.34 0.13,0.6 0.37,0.79 z" />
	</g>
</g>
</svg>